<svg width="7" height="7" viewBox="0 0 7 7" fill="none" xmlns="http://www.w3.org/2000/svg">
<g clip-path="url(#clip0_315_587)">
<path fill-rule="evenodd" clip-rule="evenodd" d="M6.34977 0.37657C6.41778 0.444588 6.44083 0.545558 6.40905 0.636349L4.65625 5.64435C4.62233 5.74125 4.5327 5.80763 4.43011 5.81182C4.32753 5.816 4.23279 5.75715 4.19109 5.66333L3.2286 3.49773L1.06301 2.53525C0.969191 2.49355 0.910331 2.39881 0.914516 2.29622C0.918701 2.19364 0.985083 2.104 1.08199 2.07009L6.08999 0.317288C6.18078 0.28551 6.28175 0.308552 6.34977 0.37657ZM3.71697 3.36348L4.39221 4.88278L5.57388 1.50657L3.71697 3.36348ZM5.21976 1.15245L1.84356 2.33412L3.36285 3.00936L5.21976 1.15245Z" fill="white"/>
</g>
<defs>
<clipPath id="clip0_315_587">
<rect width="6.0096" height="6.0096" fill="white" transform="translate(0.663818 0.0527344)"/>
</clipPath>
</defs>
</svg>
