<svg width="11" height="12" viewBox="0 0 11 12" fill="none" xmlns="http://www.w3.org/2000/svg">
<path opacity="0.1" fill-rule="evenodd" clip-rule="evenodd" d="M0.0878906 5.99592C0.0878906 3.04569 2.47952 0.654053 5.42976 0.654053C8.37999 0.654053 10.7716 3.04569 10.7716 5.99592C10.7716 8.94615 8.37999 11.3378 5.42976 11.3378C2.47952 11.3378 0.0878906 8.94615 0.0878906 5.99592Z" fill="white"/>
<path fill-rule="evenodd" clip-rule="evenodd" d="M5.43007 3.14697C4.65632 3.14697 4.55922 3.15036 4.25532 3.16419C3.95202 3.17807 3.74499 3.22609 3.56384 3.29655C3.37646 3.36932 3.21751 3.46666 3.05915 3.62507C2.90067 3.78343 2.80333 3.94238 2.73032 4.12971C2.65969 4.31092 2.61162 4.51801 2.59796 4.82119C2.58437 5.12509 2.58081 5.22225 2.58081 5.996C2.58081 6.76974 2.58425 6.86655 2.59802 7.17045C2.61197 7.47375 2.65999 7.68078 2.73038 7.86193C2.80321 8.04931 2.90055 8.20826 3.05897 8.36662C3.21727 8.5251 3.37622 8.62268 3.56349 8.69545C3.74476 8.7659 3.95184 8.81392 4.25509 8.82781C4.55898 8.84164 4.65603 8.84502 5.42972 8.84502C6.20352 8.84502 6.30033 8.84164 6.60423 8.82781C6.90753 8.81392 7.1148 8.7659 7.29606 8.69545C7.48339 8.62268 7.6421 8.5251 7.8004 8.36662C7.95888 8.20826 8.05622 8.04931 8.12923 7.86199C8.19926 7.68078 8.24734 7.47369 8.26159 7.17051C8.27524 6.86661 8.2788 6.76974 8.2788 5.996C8.2788 5.22225 8.27524 5.12514 8.26159 4.82125C8.24734 4.51795 8.19926 4.31092 8.12923 4.12977C8.05622 3.94238 7.95888 3.78343 7.8004 3.62507C7.64192 3.4666 7.48345 3.36926 7.29589 3.29655C7.11426 3.22609 6.90711 3.17807 6.60381 3.16419C6.29991 3.15036 6.20317 3.14697 5.42918 3.14697H5.43007ZM5.17448 3.66038C5.25033 3.66026 5.33497 3.66038 5.43006 3.66038C6.19075 3.66038 6.28091 3.66311 6.5813 3.67676C6.85908 3.68947 7.00984 3.73588 7.11027 3.77488C7.24323 3.82652 7.33802 3.88825 7.43767 3.98796C7.53739 4.08768 7.59912 4.18264 7.65087 4.3156C7.68987 4.41591 7.73634 4.56667 7.74899 4.84445C7.76264 5.14478 7.76561 5.235 7.76561 5.99534C7.76561 6.75567 7.76264 6.84589 7.74899 7.14622C7.73629 7.424 7.68987 7.57476 7.65087 7.67507C7.59924 7.80803 7.53739 7.9027 7.43767 8.00235C7.33796 8.10207 7.24329 8.1638 7.11027 8.21544C7.00996 8.25461 6.85908 8.30091 6.5813 8.31361C6.28097 8.32726 6.19075 8.33023 5.43006 8.33023C4.66931 8.33023 4.57915 8.32726 4.27882 8.31361C4.00104 8.30079 3.85028 8.25437 3.74979 8.21538C3.61683 8.16374 3.52187 8.10201 3.42215 8.0023C3.32243 7.90258 3.26071 7.80785 3.20895 7.67484C3.16995 7.57453 3.12348 7.42377 3.11084 7.14599C3.09718 6.84565 3.09445 6.75543 3.09445 5.99462C3.09445 5.23382 3.09718 5.14407 3.11084 4.84374C3.12354 4.56596 3.16995 4.4152 3.20895 4.31477C3.26059 4.18181 3.32243 4.08685 3.42215 3.98713C3.52187 3.88741 3.61683 3.82569 3.74979 3.77393C3.85022 3.73475 4.00104 3.68846 4.27882 3.6757C4.54164 3.66383 4.64349 3.66026 5.17448 3.65967V3.66038ZM6.95085 4.13344C6.7621 4.13344 6.60896 4.2864 6.60896 4.4752C6.60896 4.66395 6.7621 4.81709 6.95085 4.81709C7.13959 4.81709 7.29273 4.66395 7.29273 4.4752C7.29273 4.28646 7.13959 4.13344 6.95085 4.13344ZM5.43008 4.5329C4.62208 4.5329 3.96698 5.18799 3.96698 5.99599C3.96698 6.80398 4.62208 7.45878 5.43008 7.45878C6.23807 7.45878 6.89293 6.80398 6.89293 5.99599C6.89293 5.18799 6.23807 4.5329 5.43008 4.5329ZM5.43007 5.04631C5.95452 5.04631 6.37974 5.47147 6.37974 5.99599C6.37974 6.52045 5.95452 6.94566 5.43007 6.94566C4.90555 6.94566 4.48039 6.52045 4.48039 5.99599C4.48039 5.47147 4.90555 5.04631 5.43007 5.04631Z" fill="white"/>
</svg>
